<svg width="149" height="44" viewBox="0 0 149 44" fill="none" xmlns="http://www.w3.org/2000/svg">
<rect x="0.5" y="0.5" width="147.5" height="43" rx="4.5" fill="black"/>
<rect x="0.5" y="0.5" width="147.5" height="43" rx="4.5" stroke="#A6A6A6"/>
<path d="M74.9499 23.9264C72.3627 23.9264 70.254 25.8943 70.254 28.6047C70.254 31.2986 72.3627 33.283 74.9499 33.283C77.5382 33.283 79.6469 31.2986 79.6469 28.6047C79.6458 25.8943 77.5371 23.9264 74.9499 23.9264ZM74.9499 31.4416C73.532 31.4416 72.3099 30.2723 72.3099 28.6058C72.3099 26.9217 73.5331 25.77 74.9499 25.77C76.3678 25.77 77.5899 26.9217 77.5899 28.6058C77.5899 30.2712 76.3678 31.4416 74.9499 31.4416ZM64.7045 23.9264C62.1173 23.9264 60.0086 25.8943 60.0086 28.6047C60.0086 31.2986 62.1173 33.283 64.7045 33.283C67.2928 33.283 69.4015 31.2986 69.4015 28.6047C69.4015 25.8943 67.2928 23.9264 64.7045 23.9264ZM64.7045 31.4416C63.2866 31.4416 62.0645 30.2723 62.0645 28.6058C62.0645 26.9217 63.2877 25.77 64.7045 25.77C66.1224 25.77 67.3445 26.9217 67.3445 28.6058C67.3456 30.2712 66.1224 31.4416 64.7045 31.4416ZM52.5187 25.363V27.3474H57.2685C57.1266 28.4639 56.7548 29.279 56.1872 29.8455C55.4964 30.5363 54.4151 31.2986 52.5187 31.2986C49.5949 31.2986 47.3091 28.9413 47.3091 26.0175C47.3091 23.0937 49.5949 20.7364 52.5187 20.7364C54.0961 20.7364 55.2478 21.3568 56.0981 22.1543L57.4984 20.754C56.3104 19.6199 54.7341 18.752 52.5187 18.752C48.5136 18.752 45.1465 22.0124 45.1465 26.0175C45.1465 30.0226 48.5136 33.283 52.5187 33.283C54.6802 33.283 56.3115 32.5735 57.5864 31.2447C58.8976 29.9335 59.3057 28.0899 59.3057 26.6016C59.3057 26.1418 59.2705 25.7161 59.199 25.3619H52.5187V25.363ZM102.357 26.9041C101.968 25.8591 100.78 23.9264 98.3524 23.9264C95.9423 23.9264 93.9392 25.8228 93.9392 28.6047C93.9392 31.2271 95.9247 33.283 98.5823 33.283C100.726 33.283 101.967 31.9718 102.482 31.2095L100.887 30.1458C100.355 30.9257 99.6284 31.4394 98.5823 31.4394C97.5373 31.4394 96.7926 30.9609 96.3141 30.0215L102.57 27.4343L102.357 26.9041ZM95.9775 28.4639C95.9247 26.6555 97.3778 25.7348 98.4239 25.7348C99.239 25.7348 99.9298 26.1429 100.161 26.727L95.9775 28.4639ZM90.8922 33.0003H92.947V19.2492H90.8922V33.0003ZM87.524 24.9725H87.4536C86.9927 24.4225 86.1061 23.9264 84.9907 23.9264C82.651 23.9264 80.5071 25.9823 80.5071 28.6234C80.5071 31.2458 82.651 33.2841 84.9907 33.2841C86.1072 33.2841 86.9927 32.788 87.4536 32.2215H87.524V32.8947C87.524 34.6844 86.567 35.6414 85.0259 35.6414C83.7675 35.6414 82.9876 34.7383 82.6686 33.976L80.8789 34.7207C81.3926 35.9604 82.7566 37.485 85.0259 37.485C87.436 37.485 89.4743 36.0671 89.4743 32.6109V24.2113H87.5251V24.9725H87.524ZM85.1678 31.4416C83.7499 31.4416 82.563 30.2536 82.563 28.6234C82.563 26.9745 83.7499 25.77 85.1678 25.77C86.567 25.77 87.6659 26.9745 87.6659 28.6234C87.6659 30.2536 86.567 31.4416 85.1678 31.4416ZM111.987 19.2492H107.069V33.0003H109.12V27.7907H111.986C114.261 27.7907 116.498 26.144 116.498 23.5205C116.498 20.897 114.262 19.2492 111.987 19.2492ZM112.04 25.8767H109.12V21.1632H112.04C113.574 21.1632 114.445 22.4337 114.445 23.5205C114.445 24.5853 113.574 25.8767 112.04 25.8767ZM124.725 23.9022C123.239 23.9022 121.7 24.5567 121.063 26.0076L122.885 26.7677C123.274 26.0076 124 25.759 124.76 25.759C125.822 25.759 126.901 26.3959 126.918 27.5278V27.6697C126.546 27.4574 125.75 27.1395 124.778 27.1395C122.814 27.1395 120.814 28.2186 120.814 30.2349C120.814 32.0752 122.425 33.2599 124.229 33.2599C125.608 33.2599 126.369 32.6406 126.847 31.9146H126.917V32.9761H128.899V27.7038C128.9 25.264 127.077 23.9022 124.725 23.9022ZM124.476 31.4383C123.805 31.4383 122.867 31.1017 122.867 30.2701C122.867 29.2086 124.035 28.8016 125.044 28.8016C125.945 28.8016 126.37 28.9963 126.918 29.2614C126.759 30.5363 125.662 31.4383 124.476 31.4383ZM136.118 24.2025L133.765 30.1645H133.694L131.252 24.2025H129.041L132.703 32.535L130.615 37.1704H132.756L138.4 24.2025H136.118ZM117.631 33.0003H119.682V19.2492H117.631V33.0003Z" fill="white"/>
<path d="M52.1599 11.2673C52.1599 12.1891 51.8871 12.9228 51.3404 13.4706C50.72 14.1218 49.9104 14.4474 48.916 14.4474C47.9634 14.4474 47.1527 14.1174 46.4872 13.4574C45.8206 12.7963 45.4873 11.9779 45.4873 11.0011C45.4873 10.0232 45.8206 9.20476 46.4872 8.54476C47.1527 7.88366 47.9634 7.55366 48.916 7.55366C49.389 7.55366 49.8411 7.64606 50.2701 7.82976C50.7002 8.01456 51.0445 8.25986 51.3019 8.56676L50.7222 9.14756C50.2855 8.62506 49.6838 8.36436 48.9149 8.36436C48.2197 8.36436 47.6191 8.60856 47.112 9.09696C46.6049 9.58536 46.3519 10.2201 46.3519 11C46.3519 11.7799 46.6049 12.4146 47.112 12.903C47.6191 13.3914 48.2197 13.6356 48.9149 13.6356C49.6519 13.6356 50.2668 13.3903 50.7585 12.8986C51.0775 12.5785 51.2623 12.133 51.3118 11.5621H48.9149V10.769H52.1126C52.1456 10.9417 52.1599 11.1078 52.1599 11.2673Z" fill="white"/>
<path d="M57.231 8.51072H54.2258V10.6029H56.9362V11.396H54.2258V13.4882H57.231V14.3H53.3777V7.70002H57.231V8.51072Z" fill="white"/>
<path d="M60.807 14.3H59.9589V8.51072H58.1153V7.70002H62.6506V8.51072H60.807V14.3Z" fill="white"/>
<path d="M65.9318 14.3V7.70002H66.7799V14.3H65.9318Z" fill="white"/>
<path d="M70.541 14.3H69.6929V8.51072H67.8493V7.70002H72.3846V8.51072H70.541V14.3Z" fill="white"/>
<path d="M80.9699 13.4475C80.3209 14.1141 79.5146 14.4474 78.5499 14.4474C77.5852 14.4474 76.7789 14.1141 76.131 13.4475C75.482 12.7809 75.1586 11.9647 75.1586 11C75.1586 10.0353 75.482 9.21911 76.131 8.55251C76.7789 7.88591 77.5852 7.55151 78.5499 7.55151C79.5091 7.55151 80.3143 7.88701 80.9655 8.55691C81.6167 9.22681 81.9423 10.0408 81.9423 11C81.9423 11.9647 81.6178 12.7809 80.9699 13.4475ZM76.7569 12.8942C77.2453 13.3892 77.8426 13.6356 78.5499 13.6356C79.2572 13.6356 79.8556 13.3881 80.3429 12.8942C80.8313 12.3992 81.0766 11.7678 81.0766 11C81.0766 10.2322 80.8313 9.60081 80.3429 9.10581C79.8556 8.61081 79.2572 8.36441 78.5499 8.36441C77.8426 8.36441 77.2453 8.61191 76.7569 9.10581C76.2696 9.60081 76.0243 10.2322 76.0243 11C76.0243 11.7678 76.2696 12.3992 76.7569 12.8942Z" fill="white"/>
<path d="M83.1325 14.3V7.70002H84.1643L87.3719 12.8337H87.4082L87.3719 11.5621V7.70002H88.22V14.3H87.3345L83.9784 8.91663H83.9421L83.9784 10.1882V14.3H83.1325Z" fill="white"/>
<path d="M52.1599 11.2673C52.1599 12.1891 51.8871 12.9228 51.3404 13.4706C50.72 14.1218 49.9104 14.4474 48.916 14.4474C47.9634 14.4474 47.1527 14.1174 46.4872 13.4574C45.8206 12.7963 45.4873 11.9779 45.4873 11.0011C45.4873 10.0232 45.8206 9.20476 46.4872 8.54476C47.1527 7.88366 47.9634 7.55366 48.916 7.55366C49.389 7.55366 49.8411 7.64606 50.2701 7.82976C50.7002 8.01456 51.0445 8.25986 51.3019 8.56676L50.7222 9.14756C50.2855 8.62506 49.6838 8.36436 48.9149 8.36436C48.2197 8.36436 47.6191 8.60856 47.112 9.09696C46.6049 9.58536 46.3519 10.2201 46.3519 11C46.3519 11.7799 46.6049 12.4146 47.112 12.903C47.6191 13.3914 48.2197 13.6356 48.9149 13.6356C49.6519 13.6356 50.2668 13.3903 50.7585 12.8986C51.0775 12.5785 51.2623 12.133 51.3118 11.5621H48.9149V10.769H52.1126C52.1456 10.9417 52.1599 11.1078 52.1599 11.2673Z" stroke="white" stroke-width="0.2" stroke-miterlimit="10"/>
<path d="M57.231 8.51072H54.2258V10.6029H56.9362V11.396H54.2258V13.4882H57.231V14.3H53.3777V7.70002H57.231V8.51072Z" stroke="white" stroke-width="0.2" stroke-miterlimit="10"/>
<path d="M60.807 14.3H59.9589V8.51072H58.1153V7.70002H62.6506V8.51072H60.807V14.3Z" stroke="white" stroke-width="0.2" stroke-miterlimit="10"/>
<path d="M65.9318 14.3V7.70002H66.7799V14.3H65.9318Z" stroke="white" stroke-width="0.2" stroke-miterlimit="10"/>
<path d="M70.541 14.3H69.6929V8.51072H67.8493V7.70002H72.3846V8.51072H70.541V14.3Z" stroke="white" stroke-width="0.2" stroke-miterlimit="10"/>
<path d="M80.9699 13.4475C80.3209 14.1141 79.5146 14.4474 78.5499 14.4474C77.5852 14.4474 76.7789 14.1141 76.131 13.4475C75.482 12.7809 75.1586 11.9647 75.1586 11C75.1586 10.0353 75.482 9.21911 76.131 8.55251C76.7789 7.88591 77.5852 7.55151 78.5499 7.55151C79.5091 7.55151 80.3143 7.88701 80.9655 8.55691C81.6167 9.22681 81.9423 10.0408 81.9423 11C81.9423 11.9647 81.6178 12.7809 80.9699 13.4475ZM76.7569 12.8942C77.2453 13.3892 77.8426 13.6356 78.5499 13.6356C79.2572 13.6356 79.8556 13.3881 80.3429 12.8942C80.8313 12.3992 81.0766 11.7678 81.0766 11C81.0766 10.2322 80.8313 9.60081 80.3429 9.10581C79.8556 8.61081 79.2572 8.36441 78.5499 8.36441C77.8426 8.36441 77.2453 8.61191 76.7569 9.10581C76.2696 9.60081 76.0243 10.2322 76.0243 11C76.0243 11.7678 76.2696 12.3992 76.7569 12.8942Z" stroke="white" stroke-width="0.2" stroke-miterlimit="10"/>
<path d="M83.1325 14.3V7.70002H84.1643L87.3719 12.8337H87.4082L87.3719 11.5621V7.70002H88.22V14.3H87.3345L83.9784 8.91663H83.9421L83.9784 10.1882V14.3H83.1325Z" stroke="white" stroke-width="0.2" stroke-miterlimit="10"/>
<g filter="url(#filter0_ii_699_8322)">
<path d="M11.48 8.29173C11.1599 8.63053 10.9707 9.15633 10.9707 9.83723V34.1648C10.9707 34.8468 11.1599 35.3715 11.48 35.7103L11.5614 35.7895L25.1893 22.1616V22.001V21.8404L11.5614 8.21143L11.48 8.29173Z" fill="url(#paint0_linear_699_8322)"/>
<path d="M29.7314 26.7057L25.1895 22.1616V22.001V21.8404L29.7325 17.2974L29.8348 17.3557L35.2171 20.4137C36.7538 21.2871 36.7538 22.716 35.2171 23.5905L29.8348 26.6485L29.7314 26.7057Z" fill="url(#paint1_linear_699_8322)"/>
<g filter="url(#filter1_i_699_8322)">
<path d="M29.8351 26.6474L25.1887 22.001L11.4805 35.7103C11.9865 36.2471 12.8236 36.3131 13.7663 35.7785L29.8351 26.6474Z" fill="url(#paint2_linear_699_8322)"/>
</g>
<path d="M29.8351 17.3547L13.7663 8.22466C12.8236 7.68896 11.9865 7.75606 11.4805 8.29286L25.1898 22.0022L29.8351 17.3547Z" fill="url(#paint3_linear_699_8322)"/>
</g>
<defs>
<filter id="filter0_ii_699_8322" x="10.9707" y="7.85498" width="25.3984" height="28.2927" filterUnits="userSpaceOnUse" color-interpolation-filters="sRGB">
<feFlood flood-opacity="0" result="BackgroundImageFix"/>
<feBlend mode="normal" in="SourceGraphic" in2="BackgroundImageFix" result="shape"/>
<feColorMatrix in="SourceAlpha" type="matrix" values="0 0 0 0 0 0 0 0 0 0 0 0 0 0 0 0 0 0 127 0" result="hardAlpha"/>
<feOffset dy="-0.15"/>
<feComposite in2="hardAlpha" operator="arithmetic" k2="-1" k3="1"/>
<feColorMatrix type="matrix" values="0 0 0 0 0 0 0 0 0 0 0 0 0 0 0 0 0 0 0.12 0"/>
<feBlend mode="normal" in2="shape" result="effect1_innerShadow_699_8322"/>
<feColorMatrix in="SourceAlpha" type="matrix" values="0 0 0 0 0 0 0 0 0 0 0 0 0 0 0 0 0 0 127 0" result="hardAlpha"/>
<feOffset dy="0.15"/>
<feComposite in2="hardAlpha" operator="arithmetic" k2="-1" k3="1"/>
<feColorMatrix type="matrix" values="0 0 0 0 1 0 0 0 0 1 0 0 0 0 1 0 0 0 0.25 0"/>
<feBlend mode="normal" in2="effect1_innerShadow_699_8322" result="effect2_innerShadow_699_8322"/>
</filter>
<filter id="filter1_i_699_8322" x="11.4805" y="22.001" width="18.3545" height="14.1467" filterUnits="userSpaceOnUse" color-interpolation-filters="sRGB">
<feFlood flood-opacity="0" result="BackgroundImageFix"/>
<feBlend mode="normal" in="SourceGraphic" in2="BackgroundImageFix" result="shape"/>
<feColorMatrix in="SourceAlpha" type="matrix" values="0 0 0 0 0 0 0 0 0 0 0 0 0 0 0 0 0 0 127 0" result="hardAlpha"/>
<feOffset dy="-0.15"/>
<feComposite in2="hardAlpha" operator="arithmetic" k2="-1" k3="1"/>
<feColorMatrix type="matrix" values="0 0 0 0 0 0 0 0 0 0 0 0 0 0 0 0 0 0 0.08 0"/>
<feBlend mode="normal" in2="shape" result="effect1_innerShadow_699_8322"/>
</filter>
<linearGradient id="paint0_linear_699_8322" x1="23.9813" y1="9.57983" x2="5.52109" y2="28.04" gradientUnits="userSpaceOnUse">
<stop stop-color="#00A0FF"/>
<stop offset="0.0066" stop-color="#00A1FF"/>
<stop offset="0.2601" stop-color="#00BEFF"/>
<stop offset="0.5122" stop-color="#00D2FF"/>
<stop offset="0.7604" stop-color="#00DFFF"/>
<stop offset="1" stop-color="#00E3FF"/>
</linearGradient>
<linearGradient id="paint1_linear_699_8322" x1="37.2174" y1="22.001" x2="10.6019" y2="22.001" gradientUnits="userSpaceOnUse">
<stop stop-color="#FFE000"/>
<stop offset="0.4087" stop-color="#FFBD00"/>
<stop offset="0.7754" stop-color="#FFA500"/>
<stop offset="1" stop-color="#FF9C00"/>
</linearGradient>
<linearGradient id="paint2_linear_699_8322" x1="27.3118" y1="24.5243" x2="2.27744" y2="49.5586" gradientUnits="userSpaceOnUse">
<stop stop-color="#FF3A44"/>
<stop offset="1" stop-color="#C31162"/>
</linearGradient>
<linearGradient id="paint3_linear_699_8322" x1="8.02801" y1="0.194443" x2="19.2065" y2="11.373" gradientUnits="userSpaceOnUse">
<stop stop-color="#32A071"/>
<stop offset="0.0685" stop-color="#2DA771"/>
<stop offset="0.4762" stop-color="#15CF74"/>
<stop offset="0.8009" stop-color="#06E775"/>
<stop offset="1" stop-color="#00F076"/>
</linearGradient>
</defs>
</svg>
