<svg width="132" height="44" viewBox="0 0 132 44" fill="none" xmlns="http://www.w3.org/2000/svg">
<rect x="0.5" y="0.5" width="131" height="43" rx="6.5" fill="black"/>
<rect x="0.5" y="0.5" width="131" height="43" rx="6.5" stroke="#A6A6A6"/>
<path d="M89.6784 21.1211V23.6413H88.0987V25.2939H89.6784V30.9094C89.6784 32.8269 90.5458 33.5939 92.7281 33.5939C93.1116 33.5939 93.4768 33.5482 93.7964 33.4935V31.859C93.5224 31.8864 93.349 31.9047 93.0476 31.9047C92.0706 31.9047 91.6415 31.4481 91.6415 30.4072V25.2939H93.7964V23.6413H91.6415V21.1211H89.6784Z" fill="white"/>
<path d="M99.3556 33.7309C102.259 33.7309 104.04 31.786 104.04 28.5628C104.04 25.3579 102.25 23.4039 99.3556 23.4039C96.452 23.4039 94.6623 25.3579 94.6623 28.5628C94.6623 31.786 96.4429 33.7309 99.3556 33.7309ZM99.3556 31.9869C97.6481 31.9869 96.6894 30.7359 96.6894 28.5628C96.6894 26.4079 97.6481 25.1479 99.3556 25.1479C101.054 25.1479 102.022 26.4079 102.022 28.5628C102.022 30.7268 101.054 31.9869 99.3556 31.9869Z" fill="white"/>
<path d="M105.563 33.5391H107.526V27.668C107.526 26.2709 108.576 25.3305 110.065 25.3305C110.412 25.3305 110.996 25.3944 111.16 25.4492V23.5134C110.95 23.4586 110.576 23.4312 110.284 23.4312C108.987 23.4312 107.882 24.1435 107.599 25.1205H107.453V23.5956H105.563V33.5391Z" fill="white"/>
<path d="M116.035 25.0748C117.487 25.0748 118.436 26.0883 118.482 27.6497H113.46C113.569 26.0975 114.583 25.0748 116.035 25.0748ZM118.473 30.8546C118.107 31.6308 117.295 32.0599 116.108 32.0599C114.537 32.0599 113.524 30.9551 113.46 29.2111V29.1015H120.481V28.4167C120.481 25.2939 118.811 23.4039 116.044 23.4039C113.241 23.4039 111.46 25.4218 111.46 28.5993C111.46 31.7769 113.204 33.7309 116.053 33.7309C118.327 33.7309 119.915 32.6352 120.363 30.8546H118.473Z" fill="white"/>
<path d="M76.8044 29.8671C76.9558 32.3088 78.9906 33.8703 82.019 33.8703C85.2556 33.8703 87.2809 32.2331 87.2809 29.6211C87.2809 27.5674 86.1263 26.4317 83.325 25.7787L81.8203 25.4096C80.041 24.9932 79.3218 24.4349 79.3218 23.4601C79.3218 22.2298 80.4385 21.4254 82.1136 21.4254C83.7036 21.4254 84.8014 22.2109 85.0001 23.4696H87.0632C86.9402 21.1698 84.9149 19.5515 82.142 19.5515C79.1609 19.5515 77.1735 21.1698 77.1735 23.602C77.1735 25.6084 78.2997 26.8008 80.7698 27.3781L82.53 27.804C84.3376 28.2299 85.1326 28.8545 85.1326 29.8955C85.1326 31.1069 83.8834 31.987 82.1799 31.987C80.3534 31.987 79.0852 31.1637 78.9054 29.8671H76.8044Z" fill="white"/>
<path d="M56.4683 23.4312C55.117 23.4312 53.9482 24.1069 53.3456 25.2392H53.1995V23.5956H51.3094V36.8445H53.2725V32.0325H53.4278C53.9482 33.0826 55.0713 33.7035 56.4866 33.7035C58.9976 33.7035 60.5955 31.7221 60.5955 28.5628C60.5955 25.4035 58.9976 23.4312 56.4683 23.4312ZM55.9114 31.9412C54.2678 31.9412 53.236 30.6446 53.236 28.5719C53.236 26.4901 54.2678 25.1935 55.9205 25.1935C57.5823 25.1935 58.5776 26.4627 58.5776 28.5628C58.5776 30.672 57.5823 31.9412 55.9114 31.9412Z" fill="white"/>
<path d="M67.4648 23.4312C66.1134 23.4312 64.9447 24.1069 64.3421 25.2392H64.196V23.5956H62.3059V36.8445H64.269V32.0325H64.4242C64.9447 33.0826 66.0678 33.7035 67.4831 33.7035C69.9941 33.7035 71.592 31.7221 71.592 28.5628C71.592 25.4035 69.9941 23.4312 67.4648 23.4312ZM66.9078 31.9412C65.2643 31.9412 64.2325 30.6446 64.2325 28.5719C64.2325 26.4901 65.2643 25.1935 66.917 25.1935C68.5788 25.1935 69.574 26.4627 69.574 28.5628C69.574 30.672 68.5788 31.9412 66.9078 31.9412Z" fill="white"/>
<path d="M47.7872 33.5391H50.0396L45.1089 19.8827H42.8281L37.8975 33.5391H40.0742L41.3328 29.9144H46.538L47.7872 33.5391ZM43.8597 22.3623H44.0206L45.9985 28.1352H41.8723L43.8597 22.3623Z" fill="white"/>
<path d="M39.2158 9.58196V16.1699H41.5944C43.5575 16.1699 44.6943 14.96 44.6943 12.8554C44.6943 10.7827 43.5484 9.58196 41.5944 9.58196H39.2158ZM40.2385 10.5133H41.4803C42.8453 10.5133 43.6534 11.3807 43.6534 12.8691C43.6534 14.3802 42.859 15.2385 41.4803 15.2385H40.2385V10.5133Z" fill="white"/>
<path d="M48.1759 16.2657C49.6277 16.2657 50.518 15.2933 50.518 13.6817C50.518 12.0792 49.6232 11.1022 48.1759 11.1022C46.7241 11.1022 45.8293 12.0792 45.8293 13.6817C45.8293 15.2933 46.7196 16.2657 48.1759 16.2657ZM48.1759 15.3937C47.3222 15.3937 46.8428 14.7683 46.8428 13.6817C46.8428 12.6043 47.3222 11.9742 48.1759 11.9742C49.0251 11.9742 49.509 12.6043 49.509 13.6817C49.509 14.7637 49.0251 15.3937 48.1759 15.3937Z" fill="white"/>
<path d="M58.0994 11.1981H57.1178L56.2321 14.992H56.1545L55.1318 11.1981H54.1913L53.1687 14.992H53.0956L52.2054 11.1981H51.2101L52.5797 16.1699H53.5887L54.6114 12.5084H54.689L55.7162 16.1699H56.7343L58.0994 11.1981Z" fill="white"/>
<path d="M59.2298 16.1699H60.2113V13.2617C60.2113 12.4856 60.6724 12.0016 61.3983 12.0016C62.1242 12.0016 62.4712 12.3988 62.4712 13.1978V16.1699H63.4528V12.9512C63.4528 11.7688 62.841 11.1022 61.7316 11.1022C60.9829 11.1022 60.4898 11.4355 60.2478 11.9879H60.1748V11.1981H59.2298V16.1699Z" fill="white"/>
<path d="M64.9986 16.1699H65.9802V9.25781H64.9986V16.1699Z" fill="white"/>
<path d="M69.6718 16.2657C71.1236 16.2657 72.0139 15.2933 72.0139 13.6817C72.0139 12.0792 71.119 11.1022 69.6718 11.1022C68.22 11.1022 67.3252 12.0792 67.3252 13.6817C67.3252 15.2933 68.2154 16.2657 69.6718 16.2657ZM69.6718 15.3937C68.8181 15.3937 68.3387 14.7683 68.3387 13.6817C68.3387 12.6043 68.8181 11.9742 69.6718 11.9742C70.521 11.9742 71.0049 12.6043 71.0049 13.6817C71.0049 14.7637 70.521 15.3937 69.6718 15.3937Z" fill="white"/>
<path d="M74.9385 15.4257C74.4043 15.4257 74.0163 15.1655 74.0163 14.7181C74.0163 14.2798 74.3267 14.0469 75.0115 14.0013L76.2259 13.9237V14.3391C76.2259 14.9555 75.6781 15.4257 74.9385 15.4257ZM74.6874 16.2521C75.3402 16.2521 75.8835 15.969 76.1803 15.4714H76.2579V16.1699H77.2029V12.7732C77.2029 11.7231 76.4999 11.1022 75.2535 11.1022C74.1258 11.1022 73.3223 11.6501 73.2219 12.5038H74.1715C74.2811 12.1523 74.66 11.9514 75.2078 11.9514C75.879 11.9514 76.2259 12.2482 76.2259 12.7732V13.2023L74.8791 13.28C73.6967 13.353 73.0301 13.8689 73.0301 14.7637C73.0301 15.6722 73.7286 16.2521 74.6874 16.2521Z" fill="white"/>
<path d="M80.5339 16.2521C81.2187 16.2521 81.7985 15.9279 82.0953 15.3846H82.1729V16.1699H83.1133V9.25781H82.1318V11.9879H82.0587C81.7894 11.4401 81.2141 11.1159 80.5339 11.1159C79.2784 11.1159 78.4703 12.1112 78.4703 13.6817C78.4703 15.2568 79.2692 16.2521 80.5339 16.2521ZM80.8124 11.9971C81.6341 11.9971 82.15 12.6499 82.15 13.6863C82.15 14.7272 81.6387 15.3709 80.8124 15.3709C79.9815 15.3709 79.4838 14.7363 79.4838 13.6817C79.4838 12.6362 79.986 11.9971 80.8124 11.9971Z" fill="white"/>
<path d="M89.4785 16.2657C90.9303 16.2657 91.8205 15.2933 91.8205 13.6817C91.8205 12.0792 90.9257 11.1022 89.4785 11.1022C88.0267 11.1022 87.1318 12.0792 87.1318 13.6817C87.1318 15.2933 88.0221 16.2657 89.4785 16.2657ZM89.4785 15.3937C88.6247 15.3937 88.1454 14.7683 88.1454 13.6817C88.1454 12.6043 88.6247 11.9742 89.4785 11.9742C90.3276 11.9742 90.8116 12.6043 90.8116 13.6817C90.8116 14.7637 90.3276 15.3937 89.4785 15.3937Z" fill="white"/>
<path d="M93.1199 16.1699H94.1014V13.2617C94.1014 12.4856 94.5625 12.0016 95.2884 12.0016C96.0143 12.0016 96.3613 12.3988 96.3613 13.1978V16.1699H97.3429V12.9512C97.3429 11.7688 96.7311 11.1022 95.6217 11.1022C94.873 11.1022 94.3799 11.4355 94.1379 11.9879H94.0649V11.1981H93.1199V16.1699Z" fill="white"/>
<path d="M101.864 9.96089V11.2209H101.074V12.0473H101.864V14.855C101.864 15.8138 102.297 16.1973 103.388 16.1973C103.58 16.1973 103.763 16.1744 103.923 16.147V15.3298C103.786 15.3435 103.699 15.3527 103.548 15.3527C103.06 15.3527 102.845 15.1244 102.845 14.6039V12.0473H103.923V11.2209H102.845V9.96089H101.864Z" fill="white"/>
<path d="M105.24 16.1699H106.222V13.2663C106.222 12.513 106.669 12.0062 107.473 12.0062C108.167 12.0062 108.536 12.408 108.536 13.2023V16.1699H109.518V12.9604C109.518 11.7779 108.865 11.1068 107.806 11.1068C107.057 11.1068 106.532 11.4401 106.29 11.9971H106.213V9.25781H105.24V16.1699Z" fill="white"/>
<path d="M113.059 11.9377C113.785 11.9377 114.26 12.4445 114.282 13.2252H111.771C111.826 12.449 112.333 11.9377 113.059 11.9377ZM114.278 14.8276C114.095 15.2157 113.689 15.4303 113.095 15.4303C112.31 15.4303 111.803 14.8779 111.771 14.0059V13.9511H115.282V13.6087C115.282 12.0473 114.447 11.1022 113.063 11.1022C111.662 11.1022 110.772 12.1112 110.772 13.7C110.772 15.2887 111.644 16.2657 113.068 16.2657C114.205 16.2657 114.999 15.7179 115.223 14.8276H114.278Z" fill="white"/>
<path d="M27.2458 22.3309C27.2696 20.4818 28.2627 18.7322 29.838 17.7637C28.8442 16.3443 27.1796 15.4444 25.4477 15.3902C23.6006 15.1963 21.8098 16.4955 20.8685 16.4955C19.909 16.4955 18.4598 15.4095 16.8992 15.4416C14.865 15.5073 12.9687 16.6638 11.979 18.4422C9.85158 22.1255 11.4384 27.5386 13.4763 30.5159C14.4959 31.9738 15.6875 33.6023 17.2467 33.5445C18.7725 33.4813 19.3423 32.5716 21.184 32.5716C23.0087 32.5716 23.5433 33.5445 25.1341 33.5078C26.7714 33.4813 27.8029 32.0435 28.7867 30.5718C29.5193 29.533 30.083 28.3849 30.457 27.17C28.5329 26.3562 27.248 24.42 27.2458 22.3309Z" fill="white"/>
<path d="M24.241 13.4322C25.1336 12.3606 25.5734 10.9832 25.4669 9.59253C24.1031 9.73577 22.8433 10.3876 21.9386 11.4181C21.0539 12.425 20.5935 13.7781 20.6805 15.1156C22.0448 15.1297 23.386 14.4955 24.241 13.4322Z" fill="white"/>
</svg>
