<svg width="306" height="55" viewBox="0 0 306 55" fill="none" xmlns="http://www.w3.org/2000/svg">
<path d="M8.11133 19.4692V35.6937" stroke="white" stroke-width="1.4879" stroke-miterlimit="10"/>
<path d="M12.7324 16.2241V38.9384" stroke="white" stroke-width="1.4879" stroke-miterlimit="10"/>
<path d="M17.3535 11.3569V43.8059" stroke="white" stroke-width="1.4879" stroke-miterlimit="10"/>
<path d="M21.9766 8.92334V45.4284" stroke="white" stroke-width="1.4879" stroke-miterlimit="10"/>
<path d="M26.5977 1.62256V52.7297" stroke="white" stroke-width="1.4879" stroke-miterlimit="10"/>
<path d="M31.2188 5.67871V48.6736" stroke="white" stroke-width="1.4879" stroke-miterlimit="10"/>
<path d="M35.8398 11.3569V43.8059" stroke="white" stroke-width="1.4879" stroke-miterlimit="10"/>
<path d="M40.4629 15.4131V39.7498" stroke="white" stroke-width="1.4879" stroke-miterlimit="10"/>
<path d="M45.084 1.62256V52.7297" stroke="white" stroke-width="1.4879" stroke-miterlimit="10"/>
<path d="M49.7051 8.1123V46.2398" stroke="white" stroke-width="1.4879" stroke-miterlimit="10"/>
<path d="M54.3262 12.9795V42.1836" stroke="white" stroke-width="1.4879" stroke-miterlimit="10"/>
<path d="M58.9473 13.7905V41.3721" stroke="white" stroke-width="1.4879" stroke-miterlimit="10"/>
<path d="M63.5703 17.0356V38.1275" stroke="white" stroke-width="1.4879" stroke-miterlimit="10"/>
<path d="M68.1914 14.6021V40.5612" stroke="white" stroke-width="1.4879" stroke-miterlimit="10"/>
<path d="M72.8125 16.2241V38.9384" stroke="white" stroke-width="1.4879" stroke-miterlimit="10"/>
<path d="M77.4336 16.2241V38.9384" stroke="white" stroke-width="1.4879" stroke-miterlimit="10"/>
<path d="M82.0547 9.73438V44.617" stroke="white" stroke-width="1.4879" stroke-miterlimit="10"/>
<path d="M86.6777 12.1685V42.995" stroke="white" stroke-width="1.4879" stroke-miterlimit="10"/>
<path d="M91.2988 4.86719V49.4845" stroke="white" stroke-width="1.4879" stroke-miterlimit="10"/>
<path d="M95.9199 0.811035V53.5406" stroke="white" stroke-width="1.4879" stroke-miterlimit="10"/>
<path d="M100.541 5.67871V48.6736" stroke="white" stroke-width="1.4879" stroke-miterlimit="10"/>
<path d="M105.164 1.62256V52.7297" stroke="white" stroke-width="1.4879" stroke-miterlimit="10"/>
<path d="M109.785 12.9795V42.1836" stroke="white" stroke-width="1.4879" stroke-miterlimit="10"/>
<path d="M114.406 17.8467V37.3161" stroke="white" stroke-width="1.4879" stroke-miterlimit="10"/>
<path d="M119.027 14.6021V40.5612" stroke="white" stroke-width="1.4879" stroke-miterlimit="10"/>
<path d="M123.648 8.1123V46.2398" stroke="white" stroke-width="1.4879" stroke-miterlimit="10"/>
<path d="M128.271 0V54.352" stroke="white" stroke-width="1.4879" stroke-miterlimit="10"/>
<path d="M132.893 0V54.352" stroke="white" stroke-width="1.4879" stroke-miterlimit="10"/>
<path d="M137.514 5.67871V48.6736" stroke="white" stroke-width="1.4879" stroke-miterlimit="10"/>
<path d="M142.135 11.3569V43.8059" stroke="white" stroke-width="1.4879" stroke-miterlimit="10"/>
<path d="M146.758 18.6582V36.5051" stroke="white" stroke-width="1.4879" stroke-miterlimit="10"/>
<path d="M151.379 19.4692V35.6937" stroke="white" stroke-width="1.4879" stroke-miterlimit="10"/>
<path d="M156 16.2241V38.9384" stroke="white" stroke-width="1.4879" stroke-miterlimit="10"/>
<path d="M160.621 11.3569V43.8059" stroke="white" stroke-width="1.4879" stroke-miterlimit="10"/>
<path d="M165.242 8.92334V45.4284" stroke="white" stroke-width="1.4879" stroke-miterlimit="10"/>
<path d="M169.865 1.62256V52.7297" stroke="white" stroke-width="1.4879" stroke-miterlimit="10"/>
<path d="M174.486 5.67871V48.6736" stroke="white" stroke-width="1.4879" stroke-miterlimit="10"/>
<path d="M179.107 11.3569V43.8059" stroke="white" stroke-width="1.4879" stroke-miterlimit="10"/>
<path d="M183.729 15.4131V39.7498" stroke="white" stroke-width="1.4879" stroke-miterlimit="10"/>
<path d="M188.352 1.62256V52.7297" stroke="white" stroke-width="1.4879" stroke-miterlimit="10"/>
<path d="M192.973 8.1123V46.2398" stroke="white" stroke-width="1.4879" stroke-miterlimit="10"/>
<path d="M197.594 12.9795V42.1836" stroke="white" stroke-width="1.4879" stroke-miterlimit="10"/>
<path d="M202.215 13.7905V41.3721" stroke="white" stroke-width="1.4879" stroke-miterlimit="10"/>
<path d="M206.836 17.0356V38.1275" stroke="white" stroke-width="1.4879" stroke-miterlimit="10"/>
<path d="M211.459 14.6021V40.5612" stroke="white" stroke-width="1.4879" stroke-miterlimit="10"/>
<path d="M216.08 16.2241V38.9384" stroke="white" stroke-width="1.4879" stroke-miterlimit="10"/>
<path d="M220.701 16.2241V38.9384" stroke="white" stroke-width="1.4879" stroke-miterlimit="10"/>
<path d="M225.322 9.73438V44.617" stroke="white" stroke-width="1.4879" stroke-miterlimit="10"/>
<path d="M229.943 12.1685V42.995" stroke="white" stroke-width="1.4879" stroke-miterlimit="10"/>
<path d="M234.566 4.86719V49.4845" stroke="white" stroke-width="1.4879" stroke-miterlimit="10"/>
<path d="M239.188 0.811035V53.5406" stroke="white" stroke-width="1.4879" stroke-miterlimit="10"/>
<path d="M243.809 5.67871V48.6736" stroke="white" stroke-width="1.4879" stroke-miterlimit="10"/>
<path d="M248.43 1.62256V52.7297" stroke="white" stroke-width="1.4879" stroke-miterlimit="10"/>
<path d="M253.051 12.9795V42.1836" stroke="white" stroke-width="1.4879" stroke-miterlimit="10"/>
<path d="M257.674 17.8467V37.3161" stroke="white" stroke-width="1.4879" stroke-miterlimit="10"/>
<path d="M262.295 14.6021V40.5612" stroke="white" stroke-width="1.4879" stroke-miterlimit="10"/>
<path d="M266.916 8.1123V46.2398" stroke="white" stroke-width="1.4879" stroke-miterlimit="10"/>
<path d="M271.537 0V54.352" stroke="white" stroke-width="1.4879" stroke-miterlimit="10"/>
<path d="M276.16 0V54.352" stroke="white" stroke-width="1.4879" stroke-miterlimit="10"/>
<path d="M280.781 5.67871V48.6736" stroke="white" stroke-width="1.4879" stroke-miterlimit="10"/>
<path d="M285.402 11.3569V43.8059" stroke="white" stroke-width="1.4879" stroke-miterlimit="10"/>
<path d="M290.023 18.6582V36.5051" stroke="white" stroke-width="1.4879" stroke-miterlimit="10"/>
<path d="M294.645 19.4692V35.6937" stroke="white" stroke-width="1.4879" stroke-miterlimit="10"/>
<path d="M299.268 16.2241V38.9384" stroke="white" stroke-width="1.4879" stroke-miterlimit="10"/>
<path d="M0 27.5815H305.02" stroke="white" stroke-width="1.4879" stroke-miterlimit="10"/>
</svg>
